<svg width="32" height="32" viewBox="0 0 32 32" fill="none" xmlns="http://www.w3.org/2000/svg">
  <rect width="32" height="32" rx="6" fill="#ef4444"/>
  <path d="M16 6C15.2 8 14 9.5 14 11.5C14 12.88 14.84 14 16 14C17.16 14 18 12.88 18 11.5C18 9.5 16.8 8 16 6Z" fill="#fbbf24"/>
  <path d="M19.5 12C19 13.5 18.5 14.5 18.5 16C18.5 17.38 19.34 18.5 20.5 18.5C21.66 18.5 22.5 17.38 22.5 16C22.5 14.5 21.5 13.5 19.5 12Z" fill="#fbbf24"/>
  <path d="M16 14C14.5 16 11 17.5 11 21C11 24.31 13.69 27 17 27C20.31 27 23 24.31 23 21C23 17.5 19.5 16 18 14C18 16 17.5 17 16.5 17C15.5 17 15 16 15 14C15 14 16 14 16 14Z" fill="#FBBF24"/>
  <path d="M16 14C14.5 16 11 17.5 11 21C11 24.31 13.69 27 17 27C20.31 27 23 24.31 23 21C23 17.5 19.5 16 18 14" stroke="#f97316" stroke-width="0.5" stroke-linecap="round" stroke-linejoin="round"/>
  <ellipse cx="16.5" cy="22" rx="2.5" ry="3" fill="#ef4444"/>
</svg>
